<svg xmlns="http://www.w3.org/2000/svg" viewBox="0 0 400 300">
  <rect width="400" height="300" fill="#f7f3e8"/>
  <path d="M150 96 Q200 52 250 96" fill="none" stroke="#8a6a45" stroke-width="6"/>
  <path d="M128 96 C118 150 120 210 150 240 C165 254 235 254 250 240 C280 210 282 150 272 96 Z"
        fill="#e3c789" stroke="#8a6a45" stroke-width="3"/>
  <g stroke="#b08a4a" stroke-width="3.5" opacity="0.9">
    <line x1="134" y1="128" x2="266" y2="128"/>
    <line x1="128" y1="164" x2="272" y2="164"/>
    <line x1="128" y1="200" x2="272" y2="200"/>
    <line x1="142" y1="232" x2="258" y2="232"/>
  </g>
  <g stroke="#7c9a63" stroke-width="3" opacity="0.85">
    <line x1="140" y1="104" x2="240" y2="246"/>
    <line x1="164" y1="100" x2="220" y2="250"/>
    <line x1="190" y1="98" x2="200" y2="252"/>
    <line x1="210" y1="104" x2="160" y2="246"/>
    <line x1="236" y1="100" x2="180" y2="250"/>
    <line x1="260" y1="104" x2="150" y2="240"/>
  </g>
  <rect x="120" y="86" width="160" height="16" rx="8" fill="#5b4630"/>
  <circle cx="200" cy="172" r="15" fill="none" stroke="#5b4630" stroke-width="4"/>
  <line x1="200" y1="187" x2="200" y2="214" stroke="#5b4630" stroke-width="4" stroke-linecap="round"/>
</svg>
